<svg class="svg-icon" style="width: 1em; height: 1em;vertical-align: middle;fill: currentColor;overflow: hidden;" viewBox="0 0 1024 1024" version="1.1" xmlns="http://www.w3.org/2000/svg"><path d="M725.333333 736 725.333333 597.333333 426.666667 597.333333 426.666667 426.666667 725.333333 426.666667 725.333333 288 949.333333 512 725.333333 736M554.666667 85.333333C601.6 85.333333 640 123.733333 640 170.666667L640 341.333333 554.666667 341.333333 554.666667 170.666667 170.666667 170.666667 170.666667 853.333333 554.666667 853.333333 554.666667 682.666667 640 682.666667 640 853.333333C640 900.266667 601.6 938.666667 554.666667 938.666667L170.666667 938.666667C123.733333 938.666667 85.333333 900.266667 85.333333 853.333333L85.333333 170.666667C85.333333 123.733333 123.733333 85.333333 170.666667 85.333333L554.666667 85.333333Z"  /></svg>